<?xml version="1.0" standalone="no"?>
<!DOCTYPE svg PUBLIC "-//W3C//DTD SVG 20010904//EN"
 "http://www.w3.org/TR/2001/REC-SVG-20010904/DTD/svg10.dtd">
<svg version="1.0" xmlns="http://www.w3.org/2000/svg"
 width="1024.000000pt" height="1024.000000pt" viewBox="0 0 1024.000000 1024.000000"
 preserveAspectRatio="xMidYMid meet">
<metadata>
Created by potrace 1.14, written by Peter Selinger 2001-2017
</metadata>
<g transform="translate(0.000000,1024.000000) scale(0.100000,-0.100000)"
fill="#000000" stroke="none">
<path d="M899 9123 c-1 -10 -1 -7960 0 -7995 l1 -27 68 33 c37 19 112 55 167
81 149 71 285 135 430 205 72 34 157 75 190 90 33 15 136 64 228 109 93 44
170 81 172 81 1 0 92 43 201 96 110 53 219 105 244 116 25 11 101 48 170 81
69 33 166 79 215 102 86 41 176 84 440 210 66 31 154 73 195 92 41 20 127 60
190 90 63 31 149 71 190 90 41 20 157 76 258 124 101 49 185 89 187 89 2 0 79
36 171 81 93 44 202 97 244 116 41 20 127 60 190 91 63 30 151 71 195 92 44
21 139 66 210 100 72 34 171 81 220 105 50 23 140 66 200 95 363 174 418 200
420 200 2 0 83 39 181 86 99 48 211 101 249 119 117 55 254 120 385 183 69 32
166 79 215 102 50 23 144 69 210 100 66 32 165 79 220 105 204 96 254 120 434
207 101 48 184 88 186 88 1 0 69 32 151 71 82 39 194 93 249 119 55 26 161 77
235 112 74 36 177 84 228 108 50 24 92 46 92 50 0 3 -84 46 -188 95 -103 49
-279 133 -390 187 -112 54 -205 98 -207 98 -2 0 -72 33 -157 74 -84 40 -187
89 -228 109 -41 19 -138 65 -215 102 -77 37 -171 82 -210 100 -38 18 -122 57
-185 88 -63 30 -160 76 -215 102 -55 26 -161 77 -235 113 -74 35 -166 79 -205
97 -148 69 -246 115 -400 190 -88 42 -185 88 -215 102 -30 14 -111 53 -180 86
-69 33 -168 80 -220 105 -52 24 -147 69 -210 100 -63 30 -155 74 -205 97 -49
23 -148 71 -220 105 -134 64 -259 123 -380 180 -38 18 -148 71 -244 117 -95
45 -174 83 -176 83 -2 0 -88 41 -191 91 -104 50 -220 106 -259 124 -77 36
-234 111 -390 185 -121 58 -685 326 -810 385 -49 24 -191 91 -315 150 -124 59
-263 125 -310 147 -101 48 -216 102 -405 193 -77 37 -171 82 -210 100 -104 49
-259 122 -458 219 -178 85 -196 93 -198 79z"/>
</g>
</svg>
